<svg xmlns="http://www.w3.org/2000/svg" xmlns:xlink="http://www.w3.org/1999/xlink" width="500" zoomAndPan="magnify" viewBox="0 0 375 374.999991" height="500" preserveAspectRatio="xMidYMid meet" version="1.0"><defs><g/><clipPath id="00d122f72c"><path d="M 58.207031 154 L 123 154 L 123 223.828125 L 58.207031 223.828125 Z M 58.207031 154 " clip-rule="nonzero"/></clipPath></defs><path fill="#ef4444" d="M 101.671875 180.261719 C 102.910156 181.488281 104.90625 181.476562 106.132812 180.242188 C 107.359375 179.003906 107.347656 177.007812 106.109375 175.78125 C 98.707031 168.445312 86.722656 168.5 79.386719 175.902344 C 72.054688 183.304688 72.109375 195.292969 79.511719 202.625 C 83.210938 206.292969 88.058594 208.113281 92.898438 208.089844 C 97.734375 208.070312 102.566406 206.203125 106.234375 202.503906 C 107.460938 201.265625 107.449219 199.269531 106.214844 198.042969 C 104.976562 196.820312 102.980469 196.828125 101.753906 198.0625 C 96.867188 202.992188 88.882812 203.03125 83.949219 198.144531 C 79.019531 193.257812 78.984375 185.273438 83.871094 180.339844 C 88.753906 175.414062 96.738281 175.375 101.671875 180.261719 Z M 101.671875 180.261719 " fill-opacity="1" fill-rule="nonzero"/><g clip-path="url(#00d122f72c)"><path fill="#ef4444" d="M 122.019531 202.449219 C 122.003906 198.238281 120.34375 194.285156 117.351562 191.320312 C 116.117188 190.097656 116.109375 188.09375 117.332031 186.859375 C 123.449219 180.683594 123.40625 170.679688 117.230469 164.5625 C 103.640625 151.097656 81.632812 151.195312 68.167969 164.785156 C 61.644531 171.367188 58.074219 180.097656 58.117188 189.363281 C 58.160156 198.628906 61.808594 207.324219 68.390625 213.847656 C 75.1875 220.578125 84.085938 223.917969 92.96875 223.878906 C 101.851562 223.839844 110.71875 220.417969 117.453125 213.621094 C 120.417969 210.632812 122.039062 206.664062 122.019531 202.449219 Z M 112.972656 209.183594 C 101.957031 220.300781 83.949219 220.382812 72.832031 209.367188 C 67.445312 204.03125 64.460938 196.914062 64.425781 189.332031 C 64.390625 181.753906 67.3125 174.609375 72.648438 169.222656 C 83.664062 158.109375 101.671875 158.023438 112.789062 169.039062 C 116.496094 172.714844 116.523438 178.714844 112.851562 182.421875 C 109.179688 186.125 109.207031 192.128906 112.910156 195.800781 C 114.707031 197.578125 115.699219 199.953125 115.710938 202.480469 C 115.726562 205.007812 114.753906 207.386719 112.972656 209.183594 " fill-opacity="1" fill-rule="nonzero"/></g><path fill="#ef4444" d="M 92.351562 194.328125 C 92.015625 194.328125 91.683594 194.292969 91.351562 194.230469 C 91.023438 194.164062 90.703125 194.066406 90.390625 193.9375 C 90.082031 193.808594 89.785156 193.652344 89.503906 193.464844 C 89.226562 193.277344 88.964844 193.066406 88.730469 192.828125 C 88.492188 192.589844 88.277344 192.328125 88.089844 192.050781 C 87.90625 191.769531 87.746094 191.476562 87.617188 191.164062 C 87.488281 190.851562 87.390625 190.53125 87.328125 190.203125 C 87.261719 189.875 87.226562 189.539062 87.226562 189.203125 C 87.226562 188.867188 87.261719 188.535156 87.328125 188.203125 C 87.390625 187.875 87.488281 187.554688 87.617188 187.242188 C 87.746094 186.929688 87.90625 186.636719 88.089844 186.355469 C 88.277344 186.078125 88.492188 185.816406 88.730469 185.578125 C 88.964844 185.34375 89.226562 185.128906 89.503906 184.941406 C 89.785156 184.757812 90.082031 184.597656 90.390625 184.46875 C 90.703125 184.339844 91.023438 184.242188 91.351562 184.175781 C 91.683594 184.113281 92.015625 184.078125 92.351562 184.078125 C 92.6875 184.078125 93.023438 184.113281 93.351562 184.175781 C 93.683594 184.242188 94.003906 184.339844 94.3125 184.46875 C 94.625 184.597656 94.917969 184.757812 95.199219 184.941406 C 95.480469 185.128906 95.738281 185.34375 95.976562 185.578125 C 96.214844 185.816406 96.425781 186.078125 96.613281 186.355469 C 96.800781 186.636719 96.957031 186.929688 97.085938 187.242188 C 97.214844 187.554688 97.3125 187.875 97.378906 188.203125 C 97.445312 188.535156 97.476562 188.867188 97.476562 189.203125 C 97.476562 189.539062 97.445312 189.875 97.378906 190.203125 C 97.3125 190.53125 97.214844 190.851562 97.085938 191.164062 C 96.957031 191.476562 96.800781 191.769531 96.613281 192.050781 C 96.425781 192.328125 96.214844 192.589844 95.976562 192.828125 C 95.738281 193.066406 95.480469 193.277344 95.199219 193.464844 C 94.917969 193.652344 94.625 193.808594 94.3125 193.9375 C 94.003906 194.066406 93.683594 194.164062 93.351562 194.230469 C 93.023438 194.292969 92.6875 194.328125 92.351562 194.328125 Z M 92.351562 194.328125 " fill-opacity="1" fill-rule="nonzero"/><g fill="#12141d" fill-opacity="1"><g transform="translate(142.210951, 201.749987)"><g><path d="M 3.28125 -28 L 20.953125 -28 L 20.953125 -22.953125 L 8.5625 -22.953125 L 8.5625 -16.5625 L 20.484375 -16.5625 L 20.484375 -11.515625 L 8.5625 -11.515625 L 8.5625 -5.046875 L 21.4375 -5.046875 L 21.4375 0 L 3.28125 0 Z M 3.28125 -28 "/></g></g></g><g fill="#12141d" fill-opacity="1"><g transform="translate(166.688523, 201.749987)"><g><path d="M 22.484375 -7.28125 C 22.023438 -4.9375 20.945312 -3.039062 19.25 -1.59375 C 17.5625 -0.15625 15.304688 0.5625 12.484375 0.5625 C 11.015625 0.5625 9.644531 0.335938 8.375 -0.109375 C 7.113281 -0.566406 6.015625 -1.222656 5.078125 -2.078125 C 4.148438 -2.929688 3.414062 -3.984375 2.875 -5.234375 C 2.34375 -6.492188 2.078125 -7.921875 2.078125 -9.515625 L 2.078125 -10 C 2.078125 -11.601562 2.34375 -13.039062 2.875 -14.3125 C 3.414062 -15.59375 4.15625 -16.6875 5.09375 -17.59375 C 6.039062 -18.5 7.144531 -19.191406 8.40625 -19.671875 C 9.675781 -20.160156 11.035156 -20.40625 12.484375 -20.40625 C 15.253906 -20.40625 17.5 -19.679688 19.21875 -18.234375 C 20.9375 -16.796875 22.023438 -14.90625 22.484375 -12.5625 L 17.515625 -11.28125 C 17.359375 -12.457031 16.851562 -13.46875 16 -14.3125 C 15.144531 -15.164062 13.945312 -15.59375 12.40625 -15.59375 C 11.675781 -15.59375 10.992188 -15.457031 10.359375 -15.1875 C 9.722656 -14.925781 9.160156 -14.546875 8.671875 -14.046875 C 8.191406 -13.554688 7.8125 -12.957031 7.53125 -12.25 C 7.257812 -11.550781 7.125 -10.757812 7.125 -9.875 L 7.125 -9.640625 C 7.125 -8.753906 7.257812 -7.972656 7.53125 -7.296875 C 7.8125 -6.617188 8.191406 -6.050781 8.671875 -5.59375 C 9.160156 -5.144531 9.722656 -4.804688 10.359375 -4.578125 C 10.992188 -4.347656 11.675781 -4.234375 12.40625 -4.234375 C 13.945312 -4.234375 15.125 -4.617188 15.9375 -5.390625 C 16.75 -6.171875 17.273438 -7.210938 17.515625 -8.515625 Z M 22.484375 -7.28125 "/></g></g></g><g fill="#12141d" fill-opacity="1"><g transform="translate(191.166095, 201.749987)"><g><path d="M 22.5625 -9.6875 C 22.5625 -8.03125 22.28125 -6.566406 21.71875 -5.296875 C 21.15625 -4.035156 20.394531 -2.96875 19.4375 -2.09375 C 18.476562 -1.226562 17.378906 -0.566406 16.140625 -0.109375 C 14.898438 0.335938 13.597656 0.5625 12.234375 0.5625 C 10.878906 0.5625 9.582031 0.335938 8.34375 -0.109375 C 7.101562 -0.566406 6 -1.226562 5.03125 -2.09375 C 4.070312 -2.96875 3.3125 -4.035156 2.75 -5.296875 C 2.195312 -6.566406 1.921875 -8.03125 1.921875 -9.6875 L 1.921875 -10.15625 C 1.921875 -11.78125 2.195312 -13.226562 2.75 -14.5 C 3.3125 -15.769531 4.070312 -16.84375 5.03125 -17.71875 C 6 -18.601562 7.101562 -19.269531 8.34375 -19.71875 C 9.582031 -20.175781 10.878906 -20.40625 12.234375 -20.40625 C 13.597656 -20.40625 14.898438 -20.175781 16.140625 -19.71875 C 17.378906 -19.269531 18.476562 -18.601562 19.4375 -17.71875 C 20.394531 -16.84375 21.15625 -15.769531 21.71875 -14.5 C 22.28125 -13.226562 22.5625 -11.78125 22.5625 -10.15625 Z M 12.234375 -4.234375 C 12.953125 -4.234375 13.628906 -4.351562 14.265625 -4.59375 C 14.910156 -4.832031 15.472656 -5.175781 15.953125 -5.625 C 16.441406 -6.082031 16.820312 -6.640625 17.09375 -7.296875 C 17.375 -7.953125 17.515625 -8.691406 17.515625 -9.515625 L 17.515625 -10.3125 C 17.515625 -11.144531 17.375 -11.882812 17.09375 -12.53125 C 16.820312 -13.1875 16.441406 -13.738281 15.953125 -14.1875 C 15.472656 -14.644531 14.910156 -14.992188 14.265625 -15.234375 C 13.628906 -15.472656 12.953125 -15.59375 12.234375 -15.59375 C 11.515625 -15.59375 10.832031 -15.472656 10.1875 -15.234375 C 9.550781 -14.992188 8.992188 -14.644531 8.515625 -14.1875 C 8.035156 -13.738281 7.65625 -13.1875 7.375 -12.53125 C 7.09375 -11.882812 6.953125 -11.144531 6.953125 -10.3125 L 6.953125 -9.515625 C 6.953125 -8.691406 7.09375 -7.953125 7.375 -7.296875 C 7.65625 -6.640625 8.035156 -6.082031 8.515625 -5.625 C 8.992188 -5.175781 9.550781 -4.832031 10.1875 -4.59375 C 10.832031 -4.351562 11.515625 -4.234375 12.234375 -4.234375 Z M 12.234375 -4.234375 "/></g></g></g><g fill="#12141d" fill-opacity="1"><g transform="translate(215.643668, 201.749987)"><g><path d="M 9.4375 -14.234375 C 9.4375 -13.597656 9.769531 -13.140625 10.4375 -12.859375 C 11.101562 -12.578125 12.316406 -12.34375 14.078125 -12.15625 C 16.109375 -11.945312 17.757812 -11.34375 19.03125 -10.34375 C 20.3125 -9.34375 20.953125 -7.945312 20.953125 -6.15625 L 20.953125 -5.921875 C 20.953125 -3.941406 20.234375 -2.363281 18.796875 -1.1875 C 17.359375 -0.0195312 15.332031 0.5625 12.71875 0.5625 C 11.175781 0.5625 9.859375 0.363281 8.765625 -0.03125 C 7.671875 -0.4375 6.757812 -0.9375 6.03125 -1.53125 C 5.3125 -2.132812 4.757812 -2.800781 4.375 -3.53125 C 3.988281 -4.269531 3.726562 -4.988281 3.59375 -5.6875 L 8.234375 -7.203125 C 8.453125 -6.347656 8.898438 -5.597656 9.578125 -4.953125 C 10.253906 -4.316406 11.300781 -4 12.71875 -4 C 13.96875 -4 14.828125 -4.191406 15.296875 -4.578125 C 15.765625 -4.960938 16 -5.382812 16 -5.84375 C 16 -6.101562 15.9375 -6.347656 15.8125 -6.578125 C 15.695312 -6.804688 15.476562 -7.019531 15.15625 -7.21875 C 14.84375 -7.414062 14.410156 -7.582031 13.859375 -7.71875 C 13.316406 -7.851562 12.628906 -7.960938 11.796875 -8.046875 C 9.554688 -8.222656 7.773438 -8.796875 6.453125 -9.765625 C 5.140625 -10.742188 4.484375 -12.179688 4.484375 -14.078125 L 4.484375 -14.3125 C 4.484375 -15.300781 4.695312 -16.171875 5.125 -16.921875 C 5.550781 -17.671875 6.109375 -18.300781 6.796875 -18.8125 C 7.492188 -19.332031 8.296875 -19.726562 9.203125 -20 C 10.109375 -20.269531 11.039062 -20.40625 12 -20.40625 C 13.25 -20.40625 14.332031 -20.25 15.25 -19.9375 C 16.175781 -19.632812 16.957031 -19.234375 17.59375 -18.734375 C 18.238281 -18.242188 18.757812 -17.695312 19.15625 -17.09375 C 19.5625 -16.5 19.867188 -15.921875 20.078125 -15.359375 L 15.515625 -13.515625 C 15.273438 -14.234375 14.863281 -14.800781 14.28125 -15.21875 C 13.695312 -15.632812 12.9375 -15.84375 12 -15.84375 C 11.144531 -15.84375 10.503906 -15.6875 10.078125 -15.375 C 9.648438 -15.070312 9.4375 -14.691406 9.4375 -14.234375 Z M 9.4375 -14.234375 "/></g></g></g><g fill="#12141d" fill-opacity="1"><g transform="translate(240.12124, 201.749987)"><g><path d="M 16.5625 -19.84375 L 21.59375 -19.84375 L 21.59375 4.875 C 21.59375 5.78125 21.304688 6.523438 20.734375 7.109375 C 20.160156 7.703125 19.421875 8 18.515625 8 L 6.71875 8 L 6.71875 3.203125 L 15.484375 3.203125 C 16.203125 3.203125 16.5625 2.800781 16.5625 2 L 16.5625 -2.875 L 15.84375 -2.875 C 14.957031 -0.582031 13.0625 0.5625 10.15625 0.5625 C 9.175781 0.5625 8.257812 0.398438 7.40625 0.078125 C 6.550781 -0.242188 5.800781 -0.738281 5.15625 -1.40625 C 4.519531 -2.070312 4.019531 -2.90625 3.65625 -3.90625 C 3.300781 -4.90625 3.125 -6.082031 3.125 -7.4375 L 3.125 -19.84375 L 8.15625 -19.84375 L 8.15625 -8.484375 C 8.15625 -7.066406 8.488281 -5.960938 9.15625 -5.171875 C 9.820312 -4.390625 10.820312 -4 12.15625 -4 C 13.675781 -4 14.789062 -4.484375 15.5 -5.453125 C 16.207031 -6.429688 16.5625 -7.757812 16.5625 -9.4375 Z M 16.5625 -19.84375 "/></g></g></g><g fill="#12141d" fill-opacity="1"><g transform="translate(264.598812, 201.749987)"><g><path d="M 9.4375 -14.234375 C 9.4375 -13.597656 9.769531 -13.140625 10.4375 -12.859375 C 11.101562 -12.578125 12.316406 -12.34375 14.078125 -12.15625 C 16.109375 -11.945312 17.757812 -11.34375 19.03125 -10.34375 C 20.3125 -9.34375 20.953125 -7.945312 20.953125 -6.15625 L 20.953125 -5.921875 C 20.953125 -3.941406 20.234375 -2.363281 18.796875 -1.1875 C 17.359375 -0.0195312 15.332031 0.5625 12.71875 0.5625 C 11.175781 0.5625 9.859375 0.363281 8.765625 -0.03125 C 7.671875 -0.4375 6.757812 -0.9375 6.03125 -1.53125 C 5.3125 -2.132812 4.757812 -2.800781 4.375 -3.53125 C 3.988281 -4.269531 3.726562 -4.988281 3.59375 -5.6875 L 8.234375 -7.203125 C 8.453125 -6.347656 8.898438 -5.597656 9.578125 -4.953125 C 10.253906 -4.316406 11.300781 -4 12.71875 -4 C 13.96875 -4 14.828125 -4.191406 15.296875 -4.578125 C 15.765625 -4.960938 16 -5.382812 16 -5.84375 C 16 -6.101562 15.9375 -6.347656 15.8125 -6.578125 C 15.695312 -6.804688 15.476562 -7.019531 15.15625 -7.21875 C 14.84375 -7.414062 14.410156 -7.582031 13.859375 -7.71875 C 13.316406 -7.851562 12.628906 -7.960938 11.796875 -8.046875 C 9.554688 -8.222656 7.773438 -8.796875 6.453125 -9.765625 C 5.140625 -10.742188 4.484375 -12.179688 4.484375 -14.078125 L 4.484375 -14.3125 C 4.484375 -15.300781 4.695312 -16.171875 5.125 -16.921875 C 5.550781 -17.671875 6.109375 -18.300781 6.796875 -18.8125 C 7.492188 -19.332031 8.296875 -19.726562 9.203125 -20 C 10.109375 -20.269531 11.039062 -20.40625 12 -20.40625 C 13.25 -20.40625 14.332031 -20.25 15.25 -19.9375 C 16.175781 -19.632812 16.957031 -19.234375 17.59375 -18.734375 C 18.238281 -18.242188 18.757812 -17.695312 19.15625 -17.09375 C 19.5625 -16.5 19.867188 -15.921875 20.078125 -15.359375 L 15.515625 -13.515625 C 15.273438 -14.234375 14.863281 -14.800781 14.28125 -15.21875 C 13.695312 -15.632812 12.9375 -15.84375 12 -15.84375 C 11.144531 -15.84375 10.503906 -15.6875 10.078125 -15.375 C 9.648438 -15.070312 9.4375 -14.691406 9.4375 -14.234375 Z M 9.4375 -14.234375 "/></g></g></g><g fill="#12141d" fill-opacity="1"><g transform="translate(289.076384, 201.749987)"><g><path d="M 2.5625 -19.84375 L 8.4375 -19.84375 L 8.4375 -28 L 13.484375 -28 L 13.484375 -19.84375 L 20.640625 -19.84375 L 20.640625 -15.046875 L 13.484375 -15.046875 L 13.484375 -6 C 13.484375 -5.195312 13.84375 -4.796875 14.5625 -4.796875 L 19.921875 -4.796875 L 19.921875 0 L 11.515625 0 C 10.609375 0 9.867188 -0.289062 9.296875 -0.875 C 8.722656 -1.46875 8.4375 -2.21875 8.4375 -3.125 L 8.4375 -15.046875 L 2.5625 -15.046875 Z M 2.5625 -19.84375 "/></g></g></g></svg>