<svg width="131" height="32" viewBox="0 0 131 32" fill="none" xmlns="http://www.w3.org/2000/svg">
<path d="M14.4783 6.28331C14.9573 4.80921 17.0427 4.80921 17.5217 6.28331L19.233 11.5502C19.4472 12.2094 20.0615 12.6558 20.7547 12.6558H26.2926C27.8426 12.6558 28.487 14.6391 27.2331 15.5502L22.7528 18.8053C22.192 19.2127 21.9574 19.9349 22.1716 20.5941L23.8829 25.861C24.3618 27.3351 22.6747 28.5609 21.4207 27.6499L16.9404 24.3948C16.3797 23.9873 15.6203 23.9873 15.0595 24.3948L10.5793 27.6499C9.32532 28.5609 7.63815 27.3351 8.11711 25.861L9.82842 20.5941C10.0426 19.9349 9.80797 19.2127 9.24719 18.8053L4.76692 15.5502C3.51298 14.6391 4.15742 12.6558 5.70738 12.6558H11.2453C11.9385 12.6558 12.5528 12.2094 12.767 11.5502L14.4783 6.28331Z" fill="#F97316"/>
<path d="M47.4783 6.28331C47.9573 4.80921 50.0427 4.80921 50.5217 6.28331L52.233 11.5502C52.4472 12.2094 53.0615 12.6558 53.7547 12.6558H59.2926C60.8426 12.6558 61.487 14.6391 60.2331 15.5502L55.7528 18.8053C55.192 19.2127 54.9574 19.9349 55.1716 20.5941L56.8829 25.861C57.3618 27.3351 55.6747 28.5609 54.4207 27.6499L49.9404 24.3948C49.3797 23.9873 48.6203 23.9873 48.0595 24.3948L43.5793 27.6499C42.3253 28.5609 40.6381 27.3351 41.1171 25.861L42.8284 20.5941C43.0426 19.9349 42.808 19.2127 42.2472 18.8053L37.7669 15.5502C36.513 14.6391 37.1574 12.6558 38.7074 12.6558H44.2453C44.9385 12.6558 45.5528 12.2094 45.767 11.5502L47.4783 6.28331Z" fill="#F97316"/>
<path d="M80.4783 6.28331C80.9573 4.80921 83.0427 4.80921 83.5217 6.28331L85.233 11.5502C85.4472 12.2094 86.0615 12.6558 86.7547 12.6558H92.2926C93.8426 12.6558 94.487 14.6391 93.2331 15.5502L88.7528 18.8053C88.192 19.2127 87.9574 19.9349 88.1716 20.5941L89.8829 25.861C90.3618 27.3351 88.6747 28.5609 87.4207 27.6499L82.9404 24.3948C82.3797 23.9873 81.6203 23.9873 81.0595 24.3948L76.5793 27.6499C75.3253 28.5609 73.6381 27.3351 74.1171 25.861L75.8284 20.5941C76.0426 19.9349 75.808 19.2127 75.2472 18.8053L70.7669 15.5502C69.513 14.6391 70.1574 12.6558 71.7074 12.6558H77.2453C77.9385 12.6558 78.5528 12.2094 78.767 11.5502L80.4783 6.28331Z" fill="#F97316"/>
<path d="M113.478 6.28331C113.957 4.80921 116.043 4.80921 116.522 6.28331L118.233 11.5502C118.447 12.2094 119.062 12.6558 119.755 12.6558H125.293C126.843 12.6558 127.487 14.6391 126.233 15.5502L121.753 18.8053C121.192 19.2127 120.957 19.9349 121.172 20.5941L122.883 25.861C123.362 27.3351 121.675 28.5609 120.421 27.6499L115.94 24.3948C115.38 23.9873 114.62 23.9873 114.06 24.3948L109.579 27.6499C108.325 28.5609 106.638 27.3351 107.117 25.861L108.828 20.5941C109.043 19.9349 108.808 19.2127 108.247 18.8053L103.767 15.5502C102.513 14.6391 103.157 12.6558 104.707 12.6558H110.245C110.938 12.6558 111.553 12.2094 111.767 11.5502L113.478 6.28331Z" fill="#F97316"/>
</svg>
